PathFileType	4	(X/Y/Z)	C:\Users\WrightLab\Desktop\Jo\P1.2Trial4.trc
DataRate	CameraRate	NumFrames	NumMarkers	Units	OrigDataRate	OrigDataStartFrame	OrigNumFrames
100.00	100.00	       17	19	mm	100.00	197	       525
Frame#	Time	Headset_Front			Headset_Back			Headset_Left			Headset_Right			Left_Shoulder			Right_Shoulder			Sternum			C7			Left Elbow			Right Elbow			Left Wrist			Right Wrist			Left ASIS			Right ASIS			S2			Left Knee			Right Knee			Left Ankle			Right Ankle			
		X1	Y1	Z1	X2	Y2	Z2	X3	Y3	Z3	X4	Y4	Z4	X5	Y5	Z5	X6	Y6	Z6	X7	Y7	Z7	X8	Y8	Z8	X9	Y9	Z9	X10	Y10	Z10	X11	Y11	Z11	X12	Y12	Z12	X13	Y13	Z13	X14	Y14	Z14	X15	Y15	Z15	X16	Y16	Z16	X17	Y17	Z17	X18	Y18	Z18	X19	Y19	Z19	

197	1.960	-577.11804	1370.32251	-20.70638	-649.49286	1502.26440	-283.79105	-514.94147	1427.17175	-210.91377	-704.71680	1420.96411	-81.34710	-445.06628	1218.98718	-293.13492	-847.35895	1243.38110	-158.36209	-613.00610	1173.76563	-105.53387	-678.29889	1287.38220	-333.13696	-426.45557	928.75360	-348.77798	-916.77618	988.84900	-167.74895	-342.39902	718.60461	-274.60977	-930.35370	743.60291	-64.41550	-518.61902	859.94611	-118.96410	-784.09259	863.04352	-95.20421	-662.84253	892.90253	-382.89801	-565.52740	452.29190	-44.01606	-879.95026	431.07864	-162.41072	-591.27777	83.73985	-73.30826	-905.81482	177.93709	-423.99594	
198	1.970	-573.02466	1371.53076	-13.39868	-646.44781	1504.65393	-274.26672	-511.39636	1428.93176	-203.20253	-700.23438	1422.42566	-72.56451	-441.66257	1220.68042	-284.63354	-843.46521	1244.75269	-147.82986	-608.44104	1175.64014	-97.29347	-675.59808	1288.79785	-324.34781	-421.72208	930.70435	-338.85797	-912.93024	990.53558	-158.12654	-337.73712	720.74683	-262.44385	-926.22565	744.80426	-57.10087	-513.31201	861.51672	-110.94547	-779.73865	865.00305	-85.36642	-660.24341	894.63544	-373.93631	-560.28723	451.35611	-38.36373	-878.48694	432.74429	-140.43732	-590.18542	82.60169	-73.28703	-904.37604	183.71512	-404.40106	
199	1.980	-567.92218	1371.74585	-0.10402	-642.85168	1506.57605	-265.49268	-508.28329	1430.45020	-194.92882	-696.80151	1424.47449	-64.44083	-438.74640	1222.04468	-275.79053	-839.29205	1245.09009	-137.77391	-605.01605	1177.34851	-88.42965	-673.10571	1290.02173	-315.39655	-417.24258	931.89893	-327.84354	-909.97296	991.93201	-148.19574	-333.50302	723.13562	-250.04387	-923.34515	746.39716	-49.71934	-507.23422	863.15857	-102.58780	-774.17828	867.30029	-74.28772	-658.13330	895.50153	-364.28366	-555.67218	450.30560	-36.38126	-875.95947	435.17126	-116.16609	-589.61334	81.59731	-72.99400	-901.03149	188.86450	-384.11661	
200	1.990	-564.80688	1373.94482	8.18300	-639.77319	1508.23059	-257.02908	-505.25803	1431.95557	-186.58078	-693.06714	1425.83252	-55.12208	-435.91083	1223.62146	-267.43478	-836.81512	1247.80090	-128.41170	-601.55780	1179.28601	-79.96900	-670.39380	1291.41992	-306.77844	-412.40073	933.14630	-318.36285	-907.32123	993.52765	-138.28856	-328.61014	725.77576	-237.15315	-919.98822	747.58667	-40.85565	-501.07556	864.24005	-95.17227	-770.01843	868.26160	-63.48505	-655.84106	896.49554	-355.42276	-550.67188	449.96014	-33.31974	-873.28418	438.57947	-94.33415	-589.01807	80.49331	-74.05631	-898.75470	194.31805	-363.62646	
201	2.000	-561.10468	1374.99182	17.01462	-636.72125	1509.79346	-248.74757	-501.32376	1433.38940	-178.69431	-690.08032	1427.51196	-47.23499	-433.35205	1225.27832	-259.98224	-834.35858	1249.47510	-118.88674	-598.15540	1181.01074	-71.40462	-668.00903	1292.51331	-297.90381	-407.71854	935.05145	-308.73575	-905.33075	994.64050	-127.97590	-323.69342	728.61481	-224.22397	-917.43707	748.66302	-30.36010	-495.49011	865.82025	-86.86678	-765.88666	868.83044	-54.26893	-653.49054	897.14362	-346.02344	-545.14478	448.62341	-32.21005	-868.63348	440.55164	-70.39433	-589.03217	79.64214	-74.60326	-895.56042	198.64331	-344.08148	
202	2.010	-557.89307	1376.35840	25.69964	-633.75714	1511.40857	-240.22301	-498.48761	1435.00732	-170.38052	-686.55920	1428.81641	-38.95912	-430.50528	1227.07922	-252.67223	-829.70142	1249.80884	-109.95988	-594.79822	1182.30981	-62.17339	-665.46082	1293.85815	-289.12653	-402.33087	935.67468	-298.35428	-900.08215	995.65094	-116.39085	-318.11313	731.04059	-210.51584	-915.28784	750.00256	-18.99488	-488.73239	867.70111	-79.55864	-761.92932	869.03345	-45.18465	-651.65320	897.74738	-336.84393	-539.67847	446.50171	-31.09093	-863.18994	442.77066	-46.51437	-589.05688	79.28841	-75.55350	-893.10315	201.75372	-323.63828	
203	2.020	-553.69623	1378.39893	33.58145	-630.84186	1512.81213	-232.08182	-495.40973	1436.33118	-162.00621	-683.14020	1430.79041	-30.09315	-427.37387	1228.77832	-245.10036	-826.93280	1250.64880	-100.18257	-591.03088	1183.66101	-54.14594	-663.16925	1294.33008	-280.48737	-397.62012	937.35309	-289.58453	-897.73529	996.56152	-106.45218	-312.86496	733.38428	-196.80779	-913.11017	751.03632	-7.33827	-482.02731	869.00342	-70.93023	-756.46289	869.99371	-35.10424	-649.71765	898.40961	-328.86145	-534.16144	443.12964	-29.01841	-856.07275	445.86746	-22.82322	-588.68414	78.59980	-77.13020	-889.71484	205.26703	-301.89001	
204	2.030	-550.77832	1380.10327	41.78294	-627.79913	1513.60278	-223.56496	-492.14343	1438.24487	-154.26871	-679.19592	1431.85962	-21.21139	-425.01440	1229.93286	-237.66705	-823.85840	1251.72937	-91.76500	-587.20459	1184.51575	-46.03436	-660.78754	1295.34216	-272.16208	-392.71378	938.48828	-280.25058	-895.58691	997.35822	-95.93953	-307.21698	736.58417	-184.05286	-910.93909	752.22363	5.09695	-475.96439	869.42432	-62.82592	-751.43561	870.54541	-24.57233	-648.07471	898.29718	-319.51675	-528.36255	441.39453	-28.13752	-848.37115	447.55414	-0.21390	-588.53198	78.23019	-78.08336	-884.03925	208.17239	-279.45386	
205	2.040	-545.73242	1380.45483	49.47402	-625.10223	1514.59802	-215.22714	-489.26419	1439.54395	-145.77632	-676.10962	1432.92676	-12.91033	-422.20331	1231.30054	-229.75757	-820.41199	1252.62488	-83.22358	-582.89648	1185.96252	-37.67916	-657.72351	1296.21875	-262.77493	-387.76938	940.28986	-270.98383	-892.75977	998.78497	-85.69958	-302.24640	738.54034	-169.05638	-908.99652	753.69275	16.05113	-470.08774	870.50360	-54.87246	-746.13965	871.18414	-13.90934	-647.01569	900.05957	-311.79013	-521.55896	439.01807	-28.73284	-837.13147	449.71893	23.01862	-588.28784	78.68503	-80.61938	-879.59711	208.48764	-256.49576	
206	2.050	-543.75220	1382.90149	54.25098	-622.50555	1515.92163	-206.55043	-485.78146	1441.21387	-138.02463	-673.15228	1434.89526	-4.06634	-419.75101	1232.68433	-222.73369	-816.91565	1253.29041	-73.13321	-578.97760	1187.68628	-29.84901	-655.39679	1297.53882	-254.70782	-383.03879	940.79962	-261.59039	-892.67932	1000.52814	-75.86071	-295.93997	741.36578	-155.64496	-906.73657	754.74042	28.65624	-464.31567	872.28571	-46.79066	-739.89923	870.25348	-3.18262	-645.71399	900.55768	-303.46759	-516.04993	436.99527	-28.80478	-825.45947	453.56824	42.88886	-587.75464	78.75257	-82.97253	-874.51709	207.93340	-231.83942	
207	2.060	-539.03876	1385.00037	65.80175	-619.61438	1517.26270	-198.59416	-482.77316	1442.54150	-129.62614	-669.18488	1435.68237	5.11757	-417.01196	1233.58032	-215.46893	-813.74530	1253.64160	-65.02945	-575.33826	1188.76233	-20.64727	-653.24097	1298.35913	-245.87772	-378.34967	942.31372	-252.22672	-889.96008	1000.68671	-65.55209	-290.63702	744.24280	-142.05603	-904.37762	755.78949	40.54772	-457.47537	873.63843	-38.88009	-733.81378	871.79077	6.12149	-644.64929	901.49341	-294.87405	-509.48175	435.22070	-29.80723	-812.59106	457.50708	59.98814	-587.43433	78.34665	-85.08668	-869.48560	206.75569	-208.21718	
208	2.070	-534.75769	1385.77271	73.41990	-617.12933	1517.95374	-189.87714	-479.98099	1443.65027	-121.33995	-665.94354	1436.78162	13.15987	-413.81226	1235.15356	-208.29150	-810.72504	1255.24438	-56.41086	-571.92737	1189.64563	-12.76876	-650.51031	1299.22510	-237.05139	-373.76761	943.49835	-242.52235	-886.16913	1001.53741	-56.00554	-285.03201	747.94989	-130.10985	-902.17841	757.55261	51.57747	-450.42816	875.31012	-31.84396	-726.90143	871.68683	16.71394	-644.29681	903.00250	-288.17267	-504.00299	433.23837	-29.47381	-799.24310	461.87692	76.30611	-586.98535	78.28181	-87.43548	-864.23022	204.40504	-181.91780	
209	2.080	-530.73883	1386.92468	83.30115	-614.17108	1519.24231	-182.20227	-477.19064	1445.04919	-113.29044	-662.27063	1438.17346	22.05352	-411.01898	1236.25330	-201.47913	-807.28125	1255.10474	-45.74313	-567.66534	1190.39954	-4.58289	-647.81970	1300.13171	-228.53101	-368.91071	944.79205	-234.89349	-884.04926	1003.37073	-46.07003	-279.36603	750.12842	-116.82032	-899.85016	758.68018	62.99814	-443.65991	877.48962	-24.60587	-720.17322	872.76514	28.62383	-643.32489	904.00488	-279.24197	-498.33893	431.62515	-29.27161	-788.08081	465.31610	91.04050	-586.39484	77.54919	-89.80880	-858.27582	200.92957	-156.47118	
210	2.090	-526.85229	1388.33618	91.73277	-611.84454	1520.13977	-173.31226	-474.00708	1446.34863	-104.68645	-658.33661	1439.21887	30.66875	-408.42664	1237.88330	-194.70599	-802.83154	1255.91394	-36.18408	-562.64838	1191.65063	2.79409	-645.37659	1301.18982	-219.65152	-364.31821	946.29712	-226.84557	-880.76770	1003.85718	-36.24297	-273.87677	753.54370	-104.02573	-897.13226	759.81708	74.49920	-436.75510	878.51825	-19.85856	-714.04218	872.46771	39.32209	-643.09058	905.46198	-272.70724	-492.52640	429.34146	-30.60318	-775.03809	467.39963	107.35289	-586.22070	76.95982	-91.80330	-852.81995	196.44734	-130.03604	
211	2.100	-523.36078	1390.21802	100.33479	-608.96246	1521.11646	-165.14677	-470.44910	1447.21265	-97.12737	-655.56024	1440.21667	39.18967	-405.39908	1238.96436	-187.27127	-799.05475	1256.45374	-27.29490	-557.77191	1192.67334	10.75218	-642.81555	1302.32141	-210.82384	-359.69641	948.08600	-217.67410	-877.59723	1004.82025	-27.08714	-268.62793	756.47327	-91.78246	-894.66309	760.84839	85.19025	-430.26715	880.15979	-13.85148	-707.88745	872.22589	48.42046	-642.53918	906.27899	-264.65845	-487.59637	428.55215	-31.87949	-763.86420	471.35733	122.03330	-585.53241	76.62728	-94.93183	-844.44977	192.16373	-101.38307	
212	2.110	-519.04626	1391.36084	107.67562	-606.31110	1521.43433	-156.31909	-467.74655	1448.30029	-89.37933	-651.34021	1440.76099	48.71759	-402.44800	1240.11279	-180.43806	-794.79498	1257.30872	-17.29158	-552.96851	1193.77710	19.22607	-639.93549	1303.23120	-202.44939	-356.47702	948.47516	-207.16016	-873.11938	1004.70697	-16.62702	-263.35901	760.30060	-80.56949	-892.09467	762.18091	96.43054	-423.96127	881.30054	-9.12085	-700.48224	872.95343	59.85466	-642.40363	907.47864	-257.15240	-482.02521	426.62189	-31.72993	-750.88159	474.01297	137.74579	-584.54834	76.56737	-97.28503	-836.66772	186.65382	-73.68455	
213	2.120	-515.12158	1392.88416	115.95083	-603.54938	1522.08606	-147.47992	-464.19485	1449.83191	-81.61951	-648.26617	1441.40198	57.20440	-399.20059	1240.70300	-172.53362	-791.21295	1258.15881	-6.60682	-548.43127	1193.75159	26.17191	-637.24451	1303.83496	-193.22472	-350.50455	949.91199	-200.02464	-872.22064	1006.52521	-8.48098	-258.73203	763.13306	-68.42298	-889.60126	763.32324	106.75981	-417.77393	882.44653	-4.96192	-693.42682	873.33136	68.76408	-642.25171	908.21118	-249.50847	-476.02951	424.88571	-32.88129	-738.48212	477.50879	152.06628	-583.27954	76.47136	-98.95020	-828.25214	181.31213	-44.83317	
